# xmcd CD database file
#
# Track frame offsets:
#	150
#	13350
#	38022
#	54024
#	74196
#	83818
#	94019
#	109892
#	122064
#	142567
#	158872
#	174276
#	199584
#	221073
#	234565
#	253348
#	275527
#	290052
#
# Disc length: 4056 seconds
#
# Revision: 4
# Processed by: cddbd v1.5.2PL0 Copyright (c) Steve Scherf et al.
# Submitted via: CDex 1.50
#
DISCID=070fd612
DTITLE=Verschiedene - Bar Classics - Late Night Classics and Jazz
DYEAR=2007
DGENRE=Jazz
TTITLE0=Au Bar du Petit Bac (Miles Davis) 
TTITLE1=Two for the road (Roby Lakatos)
TTITLE2=Prelude Nr. 2 - Andante (Werner Haas)
TTITLE3=A fuoco (Ludovico Einaudi)
TTITLE4=Siciliano  (Albrecht Mayer)
TTITLE5=Adagio (Mischa Maisky and Martha Argerich)
TTITLE6=Laura (Oscar Peterson)
TTITLE7=Cocktails for two (Coleman Hawkins and Ben Webster)
TTITLE8=Sonatina (Lee Ritenour and Dave Grusin)
TTITLE9=Sicilienne (Orpheus Chamber Orchestra)
TTITLE10=My funny Valentine (Ben Webster and Teddy Wilson)
TTITLE11=Night-Club 1960 (Aniello and Gennaro Desiderio)
TTITLE12=Old Boston (Göran Söllscher)
TTITLE13=Angel eyes (Oscar Peterson)
TTITLE14=Romance. Larghetto (excerpt) (Martha Argerich)
TTITLE15=Resta con me (Ludovico Einaudi)
TTITLE16=Melancholy (Clara Ponty)
TTITLE17=The High and the Mighty (Lionel Hampton)
EXTD=YEAR: 2007
EXTT0=
EXTT1=
EXTT2=
EXTT3=
EXTT4=
EXTT5=
EXTT6=
EXTT7=
EXTT8=
EXTT9=
EXTT10=
EXTT11=
EXTT12=
EXTT13=
EXTT14=
EXTT15=
EXTT16=
EXTT17=
PLAYORDER=
